# xmcd
#
# Track frame offsets: 
#        150
#        23001
#        34672
#        49436
#        70045
#        83619
#        100944
#        123946
#        137237
#        153683
#        169906
#
# Disc length: 2330 seconds
#
# Revision: 1
# Processed by: cddbd v1.5.2PL0 Copyright (c) Steve Scherf et al.
# Submitted via: ExactAudioCopy v1.0b3
#
DISCID=8e09180b
DTITLE=Menahan Street Band - The Crossing
DYEAR=2012
DGENRE=Soul
TTITLE0=The Crossing
TTITLE1=Lights Out
TTITLE2=Keep Coming Back
TTITLE3=Three Faces
TTITLE4=Sleight of Hand
TTITLE5=Everyday a Dream
TTITLE6=Seven Is the Wind
TTITLE7=Bullet for the Bagman
TTITLE8=Driftwood
TTITLE9=Ivory and Blue
TTITLE10=Ivory and Blue (Reprise)
EXTD=
EXTT0=
EXTT1=
EXTT2=
EXTT3=
EXTT4=
EXTT5=
EXTT6=
EXTT7=
EXTT8=
EXTT9=
EXTT10=
PLAYORDER=
